{
	"asset":{
		"generator":"Khronos glTF Blender I/O v3.5.30",
		"version":"2.0"
	},
	"scene":0,
	"scenes":[
		{
			"name":"Scene",
			"nodes":[
				0,
				1
			]
		}
	],
	"nodes":[
		{
			"mesh":0,
			"name":"Landscape"
		},
		{
			"mesh":1,
			"name":"Building Ref",
			"translation":[
				0,
				5,
				-600
			]
		}
	],
	"materials":[
		{
			"doubleSided":true,
			"name":"Default Material",
			"pbrMetallicRoughness":{
				"baseColorFactor":[
					0.05086452141404152,
					0.19017791748046875,
					0.07190491259098053,
					1
				],
				"metallicFactor":0,
				"roughnessFactor":0.5
			}
		},
		{
			"alphaMode":"BLEND",
			"doubleSided":true,
			"name":"Transparent Material",
			"pbrMetallicRoughness":{
				"baseColorFactor":[
					0.800000011920929,
					0.800000011920929,
					0.800000011920929,
					0.5
				],
				"metallicFactor":0,
				"roughnessFactor":0.5
			}
		}
	],
	"meshes":[
		{
			"name":"Plane",
			"primitives":[
				{
					"attributes":{
						"POSITION":0,
						"TEXCOORD_0":1,
						"NORMAL":2
					},
					"indices":3,
					"material":0
				},
				{
					"attributes":{
						"POSITION":4,
						"TEXCOORD_0":5,
						"NORMAL":6
					},
					"indices":7,
					"material":0
				}
			]
		},
		{
			"name":"Cube.001",
			"primitives":[
				{
					"attributes":{
						"POSITION":8,
						"TEXCOORD_0":9,
						"NORMAL":10
					},
					"indices":11,
					"material":1
				}
			]
		}
	],
	"accessors":[
		{
			"bufferView":0,
			"componentType":5126,
			"count":4,
			"max":[
				500,
				0,
				500
			],
			"min":[
				-500,
				0,
				-500
			],
			"type":"VEC3"
		},
		{
			"bufferView":1,
			"componentType":5126,
			"count":4,
			"type":"VEC2"
		},
		{
			"bufferView":2,
			"componentType":5126,
			"count":4,
			"type":"VEC3"
		},
		{
			"bufferView":3,
			"componentType":5123,
			"count":6,
			"type":"SCALAR"
		},
		{
			"bufferView":4,
			"componentType":5126,
			"count":2400,
			"max":[
				501.6379699707031,
				99.80752563476562,
				515.7261352539062
			],
			"min":[
				-513.1826782226562,
				-99.80752563476562,
				-518.6928100585938
			],
			"type":"VEC3"
		},
		{
			"bufferView":5,
			"componentType":5126,
			"count":2400,
			"type":"VEC2"
		},
		{
			"bufferView":6,
			"componentType":5126,
			"count":2400,
			"type":"VEC3"
		},
		{
			"bufferView":7,
			"componentType":5123,
			"count":3600,
			"type":"SCALAR"
		},
		{
			"bufferView":8,
			"componentType":5126,
			"count":24,
			"max":[
				5,
				5,
				5
			],
			"min":[
				-5,
				-5,
				-5
			],
			"type":"VEC3"
		},
		{
			"bufferView":9,
			"componentType":5126,
			"count":24,
			"type":"VEC2"
		},
		{
			"bufferView":10,
			"componentType":5126,
			"count":24,
			"type":"VEC3"
		},
		{
			"bufferView":11,
			"componentType":5123,
			"count":36,
			"type":"SCALAR"
		}
	],
	"bufferViews":[
		{
			"buffer":0,
			"byteLength":48,
			"byteOffset":0,
			"target":34962
		},
		{
			"buffer":0,
			"byteLength":32,
			"byteOffset":48,
			"target":34962
		},
		{
			"buffer":0,
			"byteLength":48,
			"byteOffset":80,
			"target":34962
		},
		{
			"buffer":0,
			"byteLength":12,
			"byteOffset":128,
			"target":34963
		},
		{
			"buffer":0,
			"byteLength":28800,
			"byteOffset":140,
			"target":34962
		},
		{
			"buffer":0,
			"byteLength":19200,
			"byteOffset":28940,
			"target":34962
		},
		{
			"buffer":0,
			"byteLength":28800,
			"byteOffset":48140,
			"target":34962
		},
		{
			"buffer":0,
			"byteLength":7200,
			"byteOffset":76940,
			"target":34963
		},
		{
			"buffer":0,
			"byteLength":288,
			"byteOffset":84140,
			"target":34962
		},
		{
			"buffer":0,
			"byteLength":192,
			"byteOffset":84428,
			"target":34962
		},
		{
			"buffer":0,
			"byteLength":288,
			"byteOffset":84620,
			"target":34962
		},
		{
			"buffer":0,
			"byteLength":72,
			"byteOffset":84908,
			"target":34963
		}
	],
	"buffers":[
		{
			"byteLength":84980,
			"uri":"data:application/octet-stream;base64,"
		}
	]
}
